<?xml version="1.0" encoding="utf-8"?>
<!-- Generator: Adobe Illustrator 19.0.0, SVG Export Plug-In . SVG Version: 6.00 Build 0)  -->
<svg version="1.1" id="Layer_1" xmlns="http://www.w3.org/2000/svg" xmlns:xlink="http://www.w3.org/1999/xlink" x="0px" y="0px"
	 viewBox="-607 369 64 64" style="enable-background:new -607 369 64 64;" xml:space="preserve">
<style type="text/css">
	.st0{fill:#FFFFFF;}
</style>
<g>
	<path class="st0" d="M-606.4,385.2L-606.4,385.2C-606.4,385.2-606.4,385.2-606.4,385.2c-0.2-0.2-0.3-0.4-0.4-0.7
		c0-0.1-0.1-0.1-0.1-0.2c-0.1-0.2-0.1-0.4-0.1-0.6c0-0.1,0-0.1,0-0.2c0,0,0-0.1,0-0.1c0-0.2,0.1-0.5,0.1-0.7c0,0,0,0,0-0.1
		c0.1-0.2,0.2-0.5,0.4-0.6c0,0,0-0.1,0-0.1l10.3-12.1c0.8-0.9,2.1-0.9,2.9,0c0.8,0.9,0.8,2.4,0,3.3l-5.6,6.5
		c8.1-1.1,16.1,0.6,16.5,0.7c24.6,4.5,42.1,27.2,38.9,50.7c-0.2,1.2-1,2-2,2c-0.1,0-0.2,0-0.3,0c-1.1-0.2-1.9-1.4-1.7-2.7
		c2.9-20.9-13.1-41.3-35.5-45.4c-0.1,0-8.4-1.8-16.1-0.6l8.6,5.1c1,0.6,1.4,2,0.9,3.2c-0.5,1.2-1.7,1.6-2.8,1l-13.5-8
		C-606.1,385.5-606.2,385.4-606.4,385.2z"/>
</g>
</svg>
